<svg xmlns="http://www.w3.org/2000/svg" viewBox="0 0 718 710"><path d="M 282.94 616.54 L 288.20 613.00 L 300.85 613.00 C 319.62 612.99 343.70 611.24 354.95 609.06 C 367.13 606.70 381.47 601.92 389.60 597.51 C 392.95 595.69 398.35 593.67 401.60 593.02 C 432.47 586.80 459.55 572.87 481.35 552.00 C 507.38 527.08 523.30 497.98 531.11 461.00 C 533.70 448.75 534.78 418.86 533.07 406.85 C 529.68 383.12 523.39 365.41 506.72 332.69 C 489.02 297.96 485.08 286.34 484.27 266.47 C 483.89 257.32 484.16 252.91 485.40 248.08 C 490.24 229.21 502.26 215.51 517.47 211.55 C 530.58 208.14 540.26 210.57 549.08 219.50 C 552.06 222.52 555.07 224.99 555.77 224.99 C 558.16 225.01 559.22 219.76 558.60 211.00 C 556.66 183.62 543.67 159.72 522.71 144.95 L 515.92 140.17 L 522.21 139.58 C 525.67 139.26 529.85 138.89 531.50 138.75 C 543.99 137.71 519.53 121.81 496.50 116.00 C 484.11 112.87 463.98 112.18 451.04 114.43 C 399.40 123.41 358.15 163.37 348.33 213.93 C 345.90 226.44 346.14 247.64 348.86 260.60 C 354.71 288.50 364.93 308.83 392.06 346.50 C 406.24 366.19 414.57 379.23 420.53 391.06 C 424.99 399.92 424.93 400.87 420.35 393.99 C 410.47 379.12 399.54 366.25 369.00 333.49 C 342.42 304.98 332.42 289.13 327.36 267.50 C 321.10 240.76 317.24 230.55 309.35 219.79 C 305.93 215.13 305.90 215.01 306.94 209.35 C 309.20 197.14 307.40 180.61 303.04 173.57 C 298.97 167.00 291.60 165.29 284.50 169.28 C 277.02 173.48 268.26 190.31 266.40 204.06 C 265.76 208.78 267.54 220.00 268.93 220.00 C 269.36 220.00 270.01 217.20 270.36 213.79 C 272.37 194.63 281.53 175.41 289.63 173.38 C 294.24 172.22 296.62 173.69 299.11 179.24 C 301.20 183.87 301.48 186.00 301.48 197.00 C 301.47 206.09 300.88 212.23 299.30 219.50 C 296.26 233.48 295.77 237.00 296.84 237.00 C 297.36 237.00 299.03 233.96 300.57 230.25 C 302.10 226.54 303.64 223.16 303.98 222.75 C 304.93 221.61 312.52 236.48 315.35 245.00 C 316.71 249.12 318.82 257.21 320.02 262.98 C 322.93 276.95 327.13 288.24 333.15 298.24 C 341.76 312.57 345.69 317.26 382.12 356.62 C 400.04 375.98 404.37 381.19 413.31 394.15 C 433.44 423.33 442.99 452.27 443.00 484.15 C 443.01 525.42 426.06 563.74 398.69 584.32 C 377.52 600.25 351.57 606.55 305.00 607.07 C 290.94 607.23 285.69 608.11 281.79 611.00 L 278.80 613.21 L 279.48 610.85 C 279.85 609.56 281.46 606.59 283.06 604.25 C 284.65 601.91 285.46 600.00 284.85 600.00 C 283.22 600.00 277.00 604.01 277.00 605.06 C 277.00 605.56 275.20 606.88 273.00 608.00 C 270.80 609.12 269.00 609.69 269.00 609.27 C 269.01 608.08 272.97 601.76 275.28 599.25 C 276.42 598.01 276.93 597.00 276.42 597.00 C 274.84 597.01 268.78 601.05 266.93 603.33 C 263.62 607.41 263.92 604.27 267.25 599.89 C 274.51 590.37 281.27 588.04 303.78 587.27 C 312.73 586.97 320.33 586.28 320.66 585.74 C 320.99 585.20 319.07 582.94 316.38 580.71 C 298.41 565.81 285.70 547.48 279.82 528.00 C 277.05 518.82 276.38 502.54 278.37 493.00 C 280.78 481.45 287.81 468.42 296.39 459.61 C 300.30 455.59 304.85 451.37 306.50 450.23 C 311.27 446.94 308.94 446.79 302.24 449.96 C 290.02 455.74 279.63 468.68 274.40 484.65 C 271.75 492.74 271.50 494.70 271.54 507.50 C 271.58 523.83 272.86 529.65 279.56 543.85 C 284.98 555.35 290.86 563.70 300.30 573.33 L 307.53 580.70 L 295.51 581.77 C 281.26 583.03 274.05 585.44 267.67 591.06 C 260.37 597.48 254.53 611.35 258.17 613.60 C 258.85 614.02 260.30 613.12 261.66 611.41 L 263.99 608.50 L 264.00 613.25 C 264.00 618.91 265.53 619.42 270.36 615.34 L 273.50 612.69 L 273.83 616.09 C 274.15 619.30 275.64 621.34 277.05 620.47 C 277.40 620.25 280.05 618.48 282.94 616.54 Z M 253.92 598.00 C 256.98 598.00 260.88 595.02 260.97 592.61 C 261.01 591.33 250.12 592.80 246.63 594.53 C 245.02 595.34 243.53 596.00 243.33 596.00 C 242.65 596.00 246.96 588.14 247.99 587.51 C 248.54 587.16 249.00 586.46 249.00 585.94 C 249.00 583.97 245.85 585.14 242.13 588.50 C 240.00 590.42 237.86 592.00 237.38 592.01 C 236.90 592.01 235.26 592.66 233.75 593.45 C 230.37 595.21 230.17 594.02 232.96 588.81 C 234.20 586.50 234.53 585.01 233.85 584.78 C 231.85 584.12 237.91 578.28 242.79 576.18 C 249.45 573.32 258.47 572.02 271.69 572.01 C 278.12 572.00 283.15 571.57 283.50 570.99 C 283.85 570.44 280.23 566.05 275.48 561.24 C 247.36 532.82 238.48 498.50 250.20 463.56 C 252.90 455.53 253.18 453.59 252.71 446.50 C 252.17 438.48 249.69 429.01 245.82 420.21 L 243.75 415.50 L 242.40 418.67 C 241.21 421.49 241.32 422.72 243.43 429.75 C 244.73 434.10 246.30 440.91 246.91 444.87 C 247.99 451.79 247.91 452.42 244.94 460.79 C 233.03 494.33 239.26 527.58 262.83 556.23 C 265.89 559.95 268.65 563.00 268.96 563.00 C 269.27 563.00 270.03 563.82 270.65 564.81 C 271.71 566.50 271.22 566.64 263.37 566.84 C 258.75 566.96 252.76 567.48 250.06 567.99 C 235.36 570.78 225.00 580.99 225.00 592.68 C 225.00 597.43 227.02 602.00 229.12 602.00 C 229.68 602.00 231.61 600.88 233.41 599.50 C 237.45 596.42 238.00 596.39 238.00 599.30 C 238.00 603.69 239.85 604.10 245.46 600.93 C 248.32 599.32 252.13 598.00 253.92 598.00 Z M 413.29 579.30 C 428.89 563.59 440.77 540.22 446.50 514.00 C 448.97 502.71 449.59 473.11 447.63 460.50 C 444.46 440.11 433.60 404.96 425.09 387.50 C 419.97 377.00 403.09 350.18 398.03 344.50 C 394.77 340.84 380.08 319.03 374.59 309.70 C 348.94 266.11 345.66 222.31 365.17 183.67 C 376.10 162.00 395.95 142.32 417.70 131.58 C 450.34 115.47 487.04 114.74 516.15 129.63 L 523.50 133.40 L 517.54 134.19 C 510.92 135.07 502.00 137.76 502.00 138.88 C 502.00 139.28 504.14 140.64 506.75 141.90 C 509.36 143.17 514.20 146.15 517.50 148.53 C 536.94 162.55 547.78 179.86 551.59 203.00 C 553.53 214.76 553.55 214.66 549.48 211.56 C 533.23 199.16 509.92 202.66 493.76 219.92 C 482.04 232.44 477.46 246.37 478.29 267.00 C 479.13 288.17 482.51 298.31 500.94 335.00 C 514.79 362.58 519.19 373.23 522.99 388.37 C 526.95 404.17 528.38 418.28 527.73 435.20 C 527.05 452.84 525.09 463.97 519.93 479.50 C 503.61 528.58 468.18 565.59 422.50 581.27 C 405.37 587.15 405.47 587.18 413.29 579.30 Z M 238.46 420.40 C 239.58 419.28 239.87 417.84 239.44 415.54 C 238.93 412.80 239.26 411.94 241.55 410.14 C 245.55 406.99 251.06 407.42 265.43 411.98 C 285.94 418.49 295.11 419.18 306.13 415.03 C 311.39 413.04 317.60 408.62 319.13 405.76 C 320.72 402.78 319.55 402.63 315.34 405.27 C 313.23 406.60 309.25 408.40 306.50 409.28 C 294.60 413.05 287.03 412.48 267.61 406.35 C 252.77 401.67 247.58 401.16 242.30 403.85 C 238.19 405.94 234.00 411.28 234.00 414.40 C 234.00 415.73 233.61 415.86 232.10 415.05 C 229.17 413.49 226.00 405.99 226.00 400.63 C 226.00 391.84 230.37 386.93 242.20 382.44 C 246.22 380.92 251.16 378.63 253.19 377.36 C 257.75 374.51 262.04 367.42 262.64 361.75 L 263.09 357.50 L 261.00 361.30 C 256.62 369.23 250.35 373.88 238.00 378.36 C 224.33 383.32 218.33 392.76 220.93 405.19 C 222.32 411.86 225.23 416.57 229.92 419.73 C 233.90 422.41 236.26 422.59 238.46 420.40 Z M 218.00 405.12 C 218.00 403.54 217.26 401.63 216.35 400.87 C 210.31 395.86 210.75 382.00 217.12 376.42 C 219.24 374.57 226.58 370.00 227.45 370.00 C 227.63 370.00 228.09 371.68 228.48 373.74 C 229.41 378.69 229.90 379.33 231.64 377.88 C 232.73 376.98 232.95 375.39 232.50 371.58 C 232.17 368.79 232.59 359.84 233.43 351.71 C 234.76 338.80 234.77 335.97 233.53 329.50 C 230.53 313.83 220.08 303.76 203.03 300.10 C 194.10 298.18 185.15 293.14 177.65 285.78 L 170.79 279.06 L 174.40 275.66 C 176.38 273.79 178.00 271.30 178.00 270.12 C 178.00 268.00 177.94 268.01 174.02 270.60 C 169.48 273.61 167.00 273.22 167.00 269.48 C 167.00 265.98 169.05 262.27 174.52 255.88 C 177.05 252.92 180.84 246.90 182.95 242.50 C 195.78 215.62 220.53 199.94 252.74 198.28 L 263.99 197.70 L 264.92 194.34 C 267.02 186.73 262.19 169.01 256.44 163.25 C 252.78 159.58 248.00 158.91 244.24 161.55 C 239.31 165.00 234.57 176.82 233.20 189.10 L 232.50 195.32 L 226.00 197.51 C 204.35 204.82 190.04 216.84 180.09 236.05 C 177.12 241.80 172.08 249.79 168.90 253.80 C 159.58 265.58 159.06 270.15 165.85 280.65 C 173.68 292.77 186.63 301.65 202.84 306.02 C 213.45 308.88 219.55 312.94 223.70 319.88 C 228.60 328.09 229.29 333.22 227.77 350.08 L 226.48 364.50 L 220.76 367.54 C 212.97 371.69 209.36 375.41 207.40 381.29 C 204.56 389.86 207.36 400.99 213.61 405.91 C 217.16 408.70 218.00 408.55 218.00 405.12 Z M 232.47 258.92 C 235.93 257.25 240.62 250.01 241.52 244.92 C 242.05 241.93 241.70 240.79 239.37 238.03 C 236.19 234.25 229.89 231.05 225.57 231.02 C 217.61 230.96 210.35 237.99 208.14 247.87 C 206.93 253.28 207.41 254.62 211.37 256.78 C 219.53 261.25 226.23 261.92 232.47 258.92 Z M 216.17 253.99 C 212.04 252.12 211.87 251.87 212.54 248.76 C 214.96 237.52 223.97 232.73 232.63 238.08 C 236.76 240.63 237.62 243.58 235.63 248.34 C 232.66 255.45 224.57 257.80 216.17 253.99 Z M 226.74 243.28 C 227.13 242.11 224.37 239.00 222.93 239.00 C 221.67 239.00 218.00 242.75 218.00 244.03 C 218.00 244.60 219.01 245.46 220.25 245.94 C 222.55 246.83 226.03 245.40 226.74 243.28 Z M 238.40 192.10 C 238.64 191.22 239.14 188.27 239.51 185.54 C 240.98 174.75 246.39 165.35 250.65 166.17 C 253.42 166.70 256.83 173.83 258.94 183.47 C 260.32 189.79 260.52 192.23 259.67 192.49 C 259.02 192.69 253.88 193.04 248.23 193.28 C 239.18 193.65 238.01 193.51 238.40 192.10 Z" fill="currentColor" fill-rule="evenodd"/></svg>